<svg xmlns="http://www.w3.org/2000/svg" viewBox="0 0 192 192">
  <defs>
    <linearGradient id="bg" x1="0%" y1="0%" x2="100%" y2="100%">
      <stop offset="0%" stop-color="#ff7a4e" />
      <stop offset="100%" stop-color="#a6462a" />
    </linearGradient>
  </defs>
  <rect width="192" height="192" rx="44" fill="url(#bg)" />
  <circle cx="96" cy="96" r="66" fill="#fff8ed" opacity="0.94" />
  <path
    d="M58 81c-7-17-4-34 10-43l21 19h14l21-19c14 9 17 26 10 43l10 16c5 7 5 17 0 24l-9 12v22c0 5-4 9-9 9h-11c-5 0-9-4-9-9v-7H85v7c0 5-4 9-9 9H65c-5 0-9-4-9-9v-22l-9-12c-5-7-5-17 0-24z"
    fill="#1f2a1f"
  />
  <circle cx="80" cy="93" r="7" fill="#fff8ed" />
  <circle cx="112" cy="93" r="7" fill="#fff8ed" />
  <path d="M80 122c5 8 10 12 16 12s11-4 16-12H80z" fill="#fff8ed" />
  <path
    d="M124 65c9-12 26-18 40-12-13 2-22 11-28 22"
    fill="none"
    stroke="#1f2a1f"
    stroke-linecap="round"
    stroke-width="8"
  />
</svg>
